<?xml version="1.0" standalone="no"?>
<!DOCTYPE svg PUBLIC "-//W3C//DTD SVG 20010904//EN"
 "http://www.w3.org/TR/2001/REC-SVG-20010904/DTD/svg10.dtd">
<svg version="1.0" xmlns="http://www.w3.org/2000/svg"
 width="50.000000pt" height="50.000000pt" viewBox="0 0 50.000000 50.000000"
 preserveAspectRatio="xMidYMid meet">

<g transform="translate(0.000000,50.000000) scale(0.100000,-0.100000)"
fill="#000000" stroke="none">
<path d="M107 454 c-11 -11 -8 -44 3 -44 6 0 10 7 10 15 0 13 21 15 130 15
109 0 130 -2 130 -15 0 -8 5 -15 11 -15 6 0 9 10 7 23 -3 21 -6 22 -144 25
-77 1 -143 -1 -147 -4z"/>
<path d="M77 384 c-11 -11 -8 -44 3 -44 6 0 10 7 10 15 0 13 24 15 160 15 136
0 160 -2 160 -15 0 -8 5 -15 11 -15 6 0 9 10 7 23 -3 22 -5 22 -174 25 -93 1
-173 -1 -177 -4z"/>
<path d="M44 307 c-2 -7 -3 -69 -2 -138 l3 -124 205 0 205 0 0 135 0 135 -203
3 c-161 2 -204 0 -208 -11z m396 -127 l0 -120 -190 0 -190 0 0 120 0 120 190
0 190 0 0 -120z"/>
</g>
</svg>
