<?xml version="1.0" standalone="no"?>
<!DOCTYPE svg PUBLIC "-//W3C//DTD SVG 20010904//EN"
 "http://www.w3.org/TR/2001/REC-SVG-20010904/DTD/svg10.dtd">
<svg version="1.0" xmlns="http://www.w3.org/2000/svg"
 width="50.000000pt" height="50.000000pt" viewBox="0 0 50.000000 50.000000"
 preserveAspectRatio="xMidYMid meet">

<g transform="translate(0.000000,50.000000) scale(0.100000,-0.100000)"
fill="#000000" stroke="none">
<path d="M155 456 c-60 -28 -87 -56 -114 -116 -36 -79 -19 -183 42 -249 33
-36 115 -71 167 -71 52 0 134 35 167 71 34 37 63 110 63 159 0 52 -35 134 -71
167 -37 34 -110 63 -159 63 -27 0 -65 -10 -95 -24z m211 -104 c-14 -14 -29
-23 -32 -19 -10 10 37 58 48 50 6 -3 -2 -17 -16 -31z m-61 -47 c33 -32 33 -78
0 -110 -49 -50 -135 -15 -135 55 0 19 9 40 25 55 15 16 36 25 55 25 19 0 40
-9 55 -25z m-135 -143 c0 -14 -46 -53 -53 -45 -4 3 3 17 15 30 22 23 38 30 38
15z"/>
<path d="M234 259 c-10 -17 13 -36 27 -22 12 12 4 33 -11 33 -5 0 -12 -5 -16
-11z"/>
</g>
</svg>
